# xmcd CD database file
#
# Track frame offsets:
#	150
#	3630
#	4762
#	25092
#	33500
#	40943
#	54174
#	62376
#	75884
#	105625
#	140397
#	171045
#	192384
#	240578
#	275804
#	292167
#	307666
#
# Disc length: 4117 seconds
#
# Revision: 0
# Processed by: cddbd v1.5.1PL2 Copyright (c) Steve Scherf et al.
# Submitted via: CDex 1.51
#
DISCID=d6101311
DTITLE=Tepperwein - Gesundheit und Vitalitaet CD3
DYEAR=2004
DGENRE=New Age
TTITLE0=Einleitung
TTITLE1=Jingle
TTITLE2=Das Leben als Spiel
TTITLE3=Bestellungen beim Leben
TTITLE4=Geschichte von Ali dem Diamantsucher
TTITLE5=Alles habe Sie in sich - Voelker ohne Krankheit
TTITLE6=Die Aera der Prophylaxe
TTITLE7=Sie haben die Wahl
TTITLE8=Positiv traeumen
TTITLE9=7 Saeulen der Gesundheit
TTITLE10=Wichtigkeit der Bewegung
TTITLE11=Universalheilungspunkte
TTITLE12=Selbstmordmethoden und negatives Selbstbild
TTITLE13=Sprache der Symptome
TTITLE14=Die persoenliche Geschichte im Tagebuch
TTITLE15=Das ICH-BIN ist alterslos
TTITLE16=Jingle
EXTD=YEAR: 2004
EXTT0=
EXTT1=
EXTT2=
EXTT3=
EXTT4=
EXTT5=
EXTT6=
EXTT7=
EXTT8=
EXTT9=
EXTT10=
EXTT11=
EXTT12=
EXTT13=
EXTT14=
EXTT15=
EXTT16=
PLAYORDER=
